<svg width="1440" height="400" viewBox="0 0 1440 400" fill="none" xmlns="http://www.w3.org/2000/svg">
  <path d="M0 400L240 300L480 400L720 300L960 400L1200 300L1440 400V300L1200 200L960 300L720 200L480 300L240 200L0 300V400Z" fill="#2B4D7E" opacity="0.6"/>
  <path d="M0 400L240 320L480 400L720 320L960 400L1200 320L1440 400V350L1200 270L960 350L720 270L480 350L240 270L0 350V400Z" fill="#1F3A5F" opacity="0.8"/>
  <path d="M0 400L240 350L480 400L720 350L960 400L1200 350L1440 400V380L1200 330L960 380L720 330L480 380L240 330L0 380V400Z" fill="#0F1F33" opacity="0.9"/>
</svg>